# xmcd
#
# Track frame offsets:
#	150
#	10951
#	22630
#	35601
#	53703
#	63611
#	68699
#	86134
#	99403
#	109531
#	122492
#	129840
#	143255
#	155293
#	174257
#	187908
#	200874
#
# Disc length: 2860 seconds
#
# Revision: 6
# Processed by: cddbd v1.5.2PL0 Copyright (c) Steve Scherf et al.
# Submitted via: dBpowerAMP V4.0
#
DISCID=cf0b2a11
DTITLE=Jack Johnson - On And On
DYEAR=2003
DGENRE=Blues
TTITLE0=Times Like These
TTITLE1=The Horizon Has Been Defeated
TTITLE2=Trafic In The Sky
TTITLE3=Taylor
TTITLE4=Gone
TTITLE5=Cupid
TTITLE6=Wasting Time
TTITLE7=Holes To Heaven
TTITLE8=Dreams Be Dreams
TTITLE9=Tomorrow Morning
TTITLE10=Fall Line
TTITLE11=Cookie Jar
TTITLE12=Rodeo Clowns
TTITLE13=Cocoon
TTITLE14=Mediocre Bad Guys
TTITLE15=Symbol In My Driveway
TTITLE16=The Horizon Has Been Defeated (Acoustic Version)
EXTD=Jack Johnson:  On and On
EXTT0=
EXTT1=
EXTT2=
EXTT3=
EXTT4=
EXTT5=
EXTT6=
EXTT7=
EXTT8=
EXTT9=
EXTT10=
EXTT11=
EXTT12=
EXTT13=
EXTT14=
EXTT15=
EXTT16=
PLAYORDER=
